<svg xmlns="http://www.w3.org/2000/svg" width="487.5" viewBox="0 0 487.5 120" height="120" version="1.0"><g fill="#1E5128"><g><g><path d="M 24.417969 1.472656 C 26.582031 1.472656 28.660156 1.296875 30.738281 1.039062 C 32.125 0.867188 32.382812 0.433594 32.296875 -0.953125 C 32.296875 -2.078125 31.605469 -2.425781 30.652344 -2.597656 C 27.882812 -2.855469 25.109375 -2.425781 22.339844 -2.425781 C 19.742188 -2.335938 19.65625 -2.335938 19.742188 -4.847656 C 20.089844 -12.46875 20.347656 -20.089844 20.78125 -27.621094 C 21.128906 -32.902344 21.648438 -38.183594 21.90625 -43.554688 C 22.253906 -50.308594 22.339844 -57.0625 21.820312 -63.816406 C 21.734375 -65.113281 22.078125 -65.632812 23.378906 -65.632812 C 25.542969 -65.632812 27.621094 -65.894531 29.699219 -66.066406 C 30.480469 -66.066406 31.171875 -66.238281 31.863281 -66.585938 C 32.730469 -67.019531 32.816406 -67.625 32.039062 -68.230469 C 31.257812 -68.835938 30.304688 -68.835938 29.441406 -68.75 C 24.246094 -68.578125 18.960938 -68.921875 13.765625 -69.53125 C 10.648438 -69.960938 7.621094 -69.53125 4.675781 -68.230469 C 3.550781 -67.710938 2.511719 -67.105469 1.644531 -66.238281 C 1.125 -65.804688 0.605469 -65.285156 0.953125 -64.59375 C 1.210938 -63.816406 1.992188 -63.902344 2.597656 -63.816406 C 3.722656 -63.640625 4.675781 -64.074219 5.628906 -64.507812 C 7.101562 -65.285156 8.570312 -65.980469 10.21875 -66.066406 C 11.863281 -66.152344 12.121094 -65.894531 12.121094 -64.335938 C 12.035156 -62.949219 11.949219 -61.5625 11.777344 -60.179688 C 10.5625 -48.75 9.957031 -37.40625 9.609375 -25.976562 C 9.351562 -18.960938 9.609375 -11.863281 9.609375 -4.847656 C 9.609375 -4.414062 9.609375 -3.894531 9.609375 -3.375 C 9.609375 -2.597656 9.265625 -2.164062 8.484375 -2.164062 C 7.878906 -2.078125 7.1875 -2.078125 6.492188 -2.078125 C 4.589844 -1.992188 2.597656 -1.644531 0.691406 -1.296875 C -0.0859375 -1.125 -0.605469 -0.605469 -0.519531 0.257812 C -0.433594 1.210938 -0.0859375 1.816406 0.953125 1.90625 C 1.90625 1.992188 2.855469 2.078125 3.894531 1.992188 C 7.1875 1.90625 10.5625 1.558594 13.941406 1.558594 C 17.402344 1.558594 20.953125 1.558594 24.417969 1.472656 Z M 24.417969 1.472656" transform="translate(2.074 97.22)"/></g></g></g><g fill="#1E5128"><g><g><path d="M 7.53125 -39.222656 C 8.660156 -39.050781 9.265625 -39.484375 9.609375 -40.4375 C 10.5625 -42.773438 10.910156 -45.285156 10.738281 -47.796875 C 10.738281 -48.488281 10.390625 -48.835938 9.699219 -48.835938 C 9.003906 -48.835938 8.398438 -48.835938 7.707031 -48.835938 C 7.1875 -48.835938 6.753906 -48.664062 6.667969 -48.054688 C 6.40625 -45.199219 5.28125 -42.601562 4.328125 -39.65625 C 5.542969 -39.484375 6.582031 -39.398438 7.53125 -39.222656 Z M 7.53125 -39.222656" transform="translate(39.043 97.22)"/></g></g></g><g fill="#1E5128"><g><g><path d="M 68.316406 -25.804688 C 67.363281 -26.234375 66.585938 -26.234375 66.066406 -25.109375 C 65.71875 -24.246094 65.285156 -23.292969 64.855469 -22.425781 C 62.601562 -17.835938 60.351562 -13.160156 57.582031 -8.832031 C 56.972656 -7.964844 56.367188 -7.101562 55.503906 -6.492188 C 54.722656 -5.886719 54.03125 -5.886719 53.339844 -6.667969 C 52.472656 -7.707031 52.039062 -8.917969 51.78125 -10.21875 C 51.261719 -13.855469 50.742188 -17.492188 50.652344 -21.128906 C 50.566406 -23.8125 50.222656 -26.496094 49.527344 -29.09375 C 48.054688 -34.203125 43.898438 -35.761719 39.484375 -32.902344 C 38.703125 -32.382812 38.011719 -31.863281 37.40625 -31.257812 C 35.675781 -29.613281 34.375 -27.792969 33.164062 -25.890625 C 32.730469 -25.285156 32.558594 -24.503906 31.691406 -24.15625 C 31.519531 -26.582031 31.34375 -28.921875 31.171875 -31.171875 C 30.910156 -34.289062 30.390625 -37.40625 29.179688 -40.261719 C 26.929688 -45.890625 21.648438 -47.710938 16.363281 -44.765625 C 13.855469 -43.378906 12.035156 -41.300781 10.390625 -39.050781 C 10.042969 -38.445312 9.785156 -37.664062 8.832031 -37.058594 C 8.832031 -37.839844 8.832031 -38.183594 8.832031 -38.617188 C 9.003906 -41.390625 8.832031 -44.160156 8.660156 -46.929688 C 8.484375 -49.007812 8.484375 -49.09375 6.320312 -49.007812 C 5.109375 -48.921875 3.984375 -48.664062 2.855469 -48.75 C 1.558594 -48.75 0.953125 -48.144531 0.777344 -46.929688 C 0.691406 -46.496094 0.605469 -46.152344 0.605469 -45.71875 C -1.210938 -34.375 -1.90625 -23.03125 -1.210938 -11.515625 C -1.125 -8.570312 -0.867188 -5.542969 -0.257812 -2.511719 C 0 -0.867188 0.257812 -0.691406 1.992188 -0.605469 C 3.203125 -0.519531 4.414062 -0.519531 5.628906 -0.519531 C 7.359375 -0.605469 7.445312 -0.691406 7.621094 -2.335938 C 7.707031 -3.984375 7.964844 -5.628906 8.050781 -7.1875 C 8.398438 -16.277344 11.082031 -24.851562 14.027344 -33.335938 C 14.804688 -35.585938 15.84375 -37.753906 17.230469 -39.65625 C 17.75 -40.4375 18.269531 -41.128906 19.050781 -41.648438 C 20.261719 -42.515625 21.300781 -42.339844 22.078125 -40.957031 C 22.859375 -39.570312 23.292969 -37.925781 23.636719 -36.367188 C 24.851562 -31 25.109375 -25.542969 25.109375 -20 C 25.195312 -14.980469 25.109375 -9.957031 25.109375 -4.847656 C 25.109375 -2.769531 25.195312 -2.683594 27.363281 -2.511719 C 31.519531 -2.25 30.824219 -1.992188 31.605469 -5.714844 C 32.730469 -11.34375 34.289062 -16.882812 36.625 -22.253906 C 37.578125 -24.589844 38.878906 -26.582031 40.695312 -28.3125 C 41.5625 -29.179688 42.082031 -29.007812 42.429688 -27.882812 C 42.859375 -26.753906 43.121094 -25.542969 43.207031 -24.332031 C 43.640625 -21.128906 43.988281 -18.011719 44.765625 -14.894531 C 45.371094 -12.121094 46.238281 -9.351562 47.625 -6.839844 C 49.960938 -2.597656 55.847656 -1.992188 58.621094 -5.367188 C 59.3125 -6.234375 60.179688 -7.101562 60.785156 -8.050781 C 64.335938 -12.902344 66.5 -18.441406 68.75 -23.984375 C 69.011719 -24.675781 69.269531 -25.457031 68.316406 -25.804688 Z M 68.316406 -25.804688" transform="translate(81.38 97.22)"/></g></g></g><g fill="#1E5128"><g><g><path d="M -1.992188 -25.371094 C -4.328125 -25.457031 -6.582031 -24.9375 -8.484375 -23.292969 C -10.824219 -21.214844 -10.738281 -18.703125 -8.226562 -16.796875 C -6.582031 -15.414062 -4.589844 -14.894531 -2.511719 -14.546875 C -0.605469 -14.199219 1.386719 -14.113281 3.289062 -14.375 C 4.503906 -14.632812 4.933594 -14.113281 5.023438 -12.816406 C 5.023438 -10.390625 5.28125 -8.050781 5.367188 -5.714844 C 5.453125 -2.25 5.800781 1.210938 6.234375 4.675781 C 6.40625 6.492188 6.667969 6.582031 8.226562 6.582031 C 9.609375 6.582031 10.996094 6.582031 12.382812 6.492188 C 15.585938 6.320312 15.757812 6.234375 15.585938 2.769531 C 15.238281 -3.117188 15.671875 -8.917969 15.5 -14.71875 C 15.5 -16.710938 15.585938 -16.882812 17.316406 -16.453125 C 22.859375 -15.238281 28.488281 -15.324219 34.117188 -16.191406 C 40.003906 -17.144531 45.632812 -19.050781 50.652344 -22.6875 C 51.953125 -23.636719 53.164062 -24.765625 54.203125 -25.976562 C 55.070312 -27.015625 54.636719 -28.140625 54.03125 -29.007812 C 53.425781 -29.960938 52.730469 -29.007812 52.210938 -28.574219 C 50.308594 -26.929688 48.574219 -25.195312 46.410156 -23.898438 C 37.925781 -18.789062 28.832031 -17.664062 19.394531 -19.222656 C 19.050781 -19.308594 18.703125 -19.394531 18.789062 -19.914062 C 19.050781 -20.519531 19.570312 -20.695312 20.089844 -21.039062 C 35.15625 -31.691406 43.988281 -46.757812 46.496094 -66.5 C 47.015625 -70.828125 47.015625 -70.914062 43.121094 -71.175781 C 40.523438 -71.347656 40.523438 -71.347656 39.742188 -68.578125 C 38.445312 -63.816406 37.234375 -58.964844 35.847656 -54.203125 C 32.382812 -42.429688 25.976562 -33.164062 17.230469 -25.714844 C 16.710938 -25.371094 16.277344 -24.589844 15.414062 -25.109375 C 15.414062 -25.804688 15.324219 -26.496094 15.324219 -27.273438 C 15.585938 -35.933594 15.757812 -44.679688 16.105469 -53.425781 C 16.277344 -58.1875 16.539062 -62.949219 16.882812 -67.625 C 16.972656 -69.011719 16.625 -69.789062 15.324219 -69.789062 C 12.382812 -69.960938 9.4375 -70.050781 6.492188 -69.875 C 5.109375 -69.875 4.675781 -68.921875 4.503906 -67.625 C 4.070312 -64.855469 3.894531 -62.082031 3.984375 -59.226562 C 4.070312 -51.605469 4.242188 -44.074219 4.328125 -36.539062 C 4.414062 -32.558594 4.328125 -28.574219 4.328125 -24.15625 C 1.992188 -24.765625 0 -25.285156 -1.992188 -25.371094 Z M -3.117188 -18.703125 C -3.808594 -19.136719 -4.328125 -19.65625 -4.15625 -20.609375 C -3.984375 -21.472656 -3.375 -22.078125 -2.597656 -22.167969 C -1.992188 -22.253906 -1.296875 -22.253906 -0.691406 -22.167969 C 0.777344 -21.734375 2.164062 -21.214844 3.550781 -20.78125 C 4.15625 -20.609375 4.675781 -20.347656 4.675781 -19.570312 C 4.761719 -18.53125 3.984375 -18.441406 3.375 -18.355469 C 2.425781 -18.097656 1.386719 -18.011719 1.039062 -17.921875 C -0.777344 -17.921875 -1.992188 -17.921875 -3.117188 -18.703125 Z M -3.117188 -18.703125" transform="translate(173.326 97.22)"/></g></g></g><g fill="#1E5128"><g><g><path d="M 10.738281 -26.753906 C 11.257812 -33.941406 11.863281 -41.042969 12.296875 -48.230469 C 12.726562 -54.550781 13.160156 -60.957031 13.421875 -67.277344 C 13.59375 -70.570312 13.507812 -70.65625 10.128906 -70.570312 C 5.109375 -70.570312 5.023438 -70.570312 4.070312 -65.632812 C 2.078125 -56.023438 0.691406 -46.324219 0 -36.539062 C -0.691406 -27.882812 -0.777344 -19.222656 0.171875 -10.648438 C 0.519531 -7.878906 0.953125 -5.109375 1.644531 -2.425781 C 2.078125 -0.777344 3.203125 0 4.847656 0.0859375 C 5.542969 0.0859375 6.320312 0.0859375 7.011719 0 C 8.3125 -0.0859375 9.089844 -0.691406 9.179688 -2.164062 C 9.523438 -4.847656 10.042969 -7.445312 10.648438 -10.042969 C 12.726562 -19.308594 16.710938 -27.621094 21.820312 -35.5 C 22.511719 -36.453125 23.207031 -37.839844 24.589844 -37.578125 C 26.148438 -37.144531 25.628906 -35.585938 25.714844 -34.375 C 25.804688 -27.101562 25.890625 -19.914062 26.0625 -12.640625 C 26.0625 -9.871094 26.234375 -7.101562 26.582031 -4.328125 C 27.015625 -1.90625 27.535156 0.519531 28.660156 2.683594 C 29.351562 3.984375 30.21875 5.023438 31.691406 5.367188 C 34.808594 5.972656 37.664062 5.542969 39.917969 2.945312 C 41.5625 0.953125 42.773438 -1.210938 43.898438 -3.550781 C 46.929688 -10.042969 49.269531 -16.882812 51.78125 -23.550781 C 52.558594 -25.628906 52.472656 -25.628906 50.394531 -26.234375 C 48.921875 -26.582031 48.488281 -25.976562 48.054688 -24.851562 C 45.976562 -19.914062 43.898438 -15.066406 41.820312 -10.21875 C 40.523438 -7.011719 39.222656 -3.894531 37.40625 -0.953125 C 36.714844 0.257812 36.105469 1.472656 34.808594 2.25 C 34.027344 1.210938 33.855469 0.0859375 33.597656 -1.039062 C 32.988281 -4.414062 32.644531 -7.878906 32.644531 -11.257812 C 32.644531 -17.144531 32.644531 -23.03125 32.644531 -28.921875 C 32.644531 -31.863281 32.382812 -34.808594 31.429688 -37.578125 C 30.304688 -41.214844 27.101562 -42.773438 23.464844 -41.648438 C 21.820312 -41.128906 20.433594 -40.089844 19.222656 -38.878906 C 17.402344 -37.058594 15.933594 -34.980469 14.632812 -32.816406 C 13.421875 -30.824219 12.296875 -28.746094 11.082031 -26.753906 C 10.996094 -26.753906 10.824219 -26.753906 10.738281 -26.753906 Z M 10.738281 -26.753906" transform="translate(222.589 97.22)"/></g></g></g><g fill="#1E5128"><g><g><path d="M 21.214844 -24.675781 C 21.820312 -24.589844 22.339844 -24.417969 22.859375 -24.332031 C 27.882812 -23.117188 32.816406 -24.070312 37.664062 -25.285156 C 38.703125 -25.542969 38.964844 -26.0625 38.703125 -27.101562 C 38.53125 -28.054688 37.839844 -28.140625 37.058594 -27.96875 C 36.105469 -27.707031 35.15625 -27.621094 34.203125 -27.363281 C 28.140625 -25.804688 23.292969 -27.792969 19.050781 -32.039062 C 18.355469 -32.730469 17.664062 -33.421875 16.972656 -34.117188 C 16.105469 -35.066406 15.152344 -35.933594 14.113281 -36.714844 C 11.515625 -38.617188 9.523438 -38.617188 7.011719 -36.625 C 5.453125 -35.5 4.328125 -34.027344 3.289062 -32.46875 C -0.0859375 -27.273438 -1.816406 -21.558594 -2.335938 -15.414062 C -2.683594 -12.035156 -2.164062 -8.746094 -0.605469 -5.714844 C 0.867188 -2.855469 3.03125 -0.867188 6.148438 -0.171875 C 12.296875 1.296875 16.972656 -1.125 19.394531 -6.925781 C 21.558594 -12.296875 22.339844 -17.75 20.867188 -23.464844 C 20.78125 -23.726562 20.867188 -24.070312 20.78125 -24.503906 C 21.128906 -24.589844 21.128906 -24.675781 21.214844 -24.675781 Z M 12.382812 -30.304688 C 16.972656 -22.6875 17.921875 -14.71875 14.027344 -6.582031 C 13.421875 -5.453125 12.816406 -4.414062 11.863281 -3.550781 C 10.738281 -2.511719 9.699219 -2.597656 8.746094 -3.894531 C 8.140625 -4.675781 7.878906 -5.542969 7.53125 -6.492188 C 6.492188 -10.21875 6.492188 -13.941406 7.011719 -17.664062 C 7.53125 -21.128906 8.140625 -24.589844 9.265625 -27.882812 C 9.699219 -29.179688 10.21875 -30.480469 11.082031 -31.519531 C 11.777344 -31.257812 12.121094 -30.738281 12.382812 -30.304688 Z M 12.382812 -30.304688" transform="translate(268.648 97.22)"/></g></g></g><g fill="#1E5128"><g><g><path d="M -3.03125 -28.746094 C -2.511719 -22.339844 -1.386719 -16.019531 0.867188 -9.871094 C 1.992188 -6.582031 3.550781 -3.464844 5.800781 -0.691406 C 7.445312 1.386719 9.609375 2.597656 12.296875 2.855469 C 16.453125 3.289062 19.828125 2.078125 22.425781 -1.210938 C 23.207031 -2.164062 23.898438 -3.203125 24.589844 -4.15625 C 28.3125 -9.957031 30.21875 -16.453125 32.730469 -22.773438 C 32.816406 -23.03125 32.816406 -23.292969 32.816406 -23.464844 C 32.902344 -23.8125 32.730469 -24.15625 32.46875 -24.332031 C 31.085938 -25.285156 29.527344 -24.851562 28.832031 -23.378906 C 28.660156 -22.859375 28.488281 -22.425781 28.3125 -21.992188 C 25.890625 -16.710938 23.8125 -11.257812 20.953125 -6.234375 C 20.089844 -4.675781 19.136719 -3.117188 17.75 -1.90625 C 15.152344 0.519531 13.246094 0.171875 11.6875 -2.945312 C 11.601562 -3.117188 11.429688 -3.375 11.34375 -3.636719 C 9.351562 -8.917969 8.140625 -14.375 7.878906 -20 C 7.792969 -20.953125 8.050781 -21.734375 8.660156 -22.511719 C 14.546875 -30.566406 18.703125 -39.484375 22.339844 -48.664062 C 23.984375 -52.820312 25.023438 -57.148438 25.285156 -61.5625 C 25.542969 -64.679688 25.285156 -67.710938 24.070312 -70.65625 C 22.339844 -74.726562 18.441406 -76.804688 14.113281 -75.9375 C 10.648438 -75.246094 8.050781 -73.253906 5.886719 -70.570312 C 3.375 -67.363281 1.730469 -63.726562 0.433594 -60.003906 C -2.335938 -52.125 -3.203125 -44.074219 -3.375 -35.15625 C -3.289062 -33.507812 -3.289062 -31.171875 -3.03125 -28.746094 Z M 7.011719 -29.351562 C 6.320312 -41.820312 7.445312 -54.117188 11.863281 -65.894531 C 12.46875 -67.453125 13.074219 -68.921875 14.027344 -70.308594 C 15.414062 -72.300781 16.539062 -72.214844 17.664062 -69.960938 C 19.050781 -67.277344 19.480469 -64.421875 19.308594 -61.390625 C 19.050781 -55.15625 17.578125 -49.183594 15.152344 -43.46875 C 13.335938 -39.050781 11.429688 -34.722656 9.179688 -30.566406 C 8.660156 -29.785156 8.226562 -28.921875 7.621094 -27.96875 C 6.925781 -28.488281 7.011719 -28.921875 7.011719 -29.351562 Z M 7.011719 -29.351562" transform="translate(303.193 97.22)"/></g></g></g><g fill="#1E5128"><g><g><path d="M 21.214844 -24.675781 C 21.820312 -24.589844 22.339844 -24.417969 22.859375 -24.332031 C 27.882812 -23.117188 32.816406 -24.070312 37.664062 -25.285156 C 38.703125 -25.542969 38.964844 -26.0625 38.703125 -27.101562 C 38.53125 -28.054688 37.839844 -28.140625 37.058594 -27.96875 C 36.105469 -27.707031 35.15625 -27.621094 34.203125 -27.363281 C 28.140625 -25.804688 23.292969 -27.792969 19.050781 -32.039062 C 18.355469 -32.730469 17.664062 -33.421875 16.972656 -34.117188 C 16.105469 -35.066406 15.152344 -35.933594 14.113281 -36.714844 C 11.515625 -38.617188 9.523438 -38.617188 7.011719 -36.625 C 5.453125 -35.5 4.328125 -34.027344 3.289062 -32.46875 C -0.0859375 -27.273438 -1.816406 -21.558594 -2.335938 -15.414062 C -2.683594 -12.035156 -2.164062 -8.746094 -0.605469 -5.714844 C 0.867188 -2.855469 3.03125 -0.867188 6.148438 -0.171875 C 12.296875 1.296875 16.972656 -1.125 19.394531 -6.925781 C 21.558594 -12.296875 22.339844 -17.75 20.867188 -23.464844 C 20.78125 -23.726562 20.867188 -24.070312 20.78125 -24.503906 C 21.128906 -24.589844 21.128906 -24.675781 21.214844 -24.675781 Z M 12.382812 -30.304688 C 16.972656 -22.6875 17.921875 -14.71875 14.027344 -6.582031 C 13.421875 -5.453125 12.816406 -4.414062 11.863281 -3.550781 C 10.738281 -2.511719 9.699219 -2.597656 8.746094 -3.894531 C 8.140625 -4.675781 7.878906 -5.542969 7.53125 -6.492188 C 6.492188 -10.21875 6.492188 -13.941406 7.011719 -17.664062 C 7.53125 -21.128906 8.140625 -24.589844 9.265625 -27.882812 C 9.699219 -29.179688 10.21875 -30.480469 11.082031 -31.519531 C 11.777344 -31.257812 12.121094 -30.738281 12.382812 -30.304688 Z M 12.382812 -30.304688" transform="translate(331.764 97.22)"/></g></g></g><g fill="#1E5128"><g><g><path d="M 21.214844 -24.675781 C 21.820312 -24.589844 22.339844 -24.417969 22.859375 -24.332031 C 27.882812 -23.117188 32.816406 -24.070312 37.664062 -25.285156 C 38.703125 -25.542969 38.964844 -26.0625 38.703125 -27.101562 C 38.53125 -28.054688 37.839844 -28.140625 37.058594 -27.96875 C 36.105469 -27.707031 35.15625 -27.621094 34.203125 -27.363281 C 28.140625 -25.804688 23.292969 -27.792969 19.050781 -32.039062 C 18.355469 -32.730469 17.664062 -33.421875 16.972656 -34.117188 C 16.105469 -35.066406 15.152344 -35.933594 14.113281 -36.714844 C 11.515625 -38.617188 9.523438 -38.617188 7.011719 -36.625 C 5.453125 -35.5 4.328125 -34.027344 3.289062 -32.46875 C -0.0859375 -27.273438 -1.816406 -21.558594 -2.335938 -15.414062 C -2.683594 -12.035156 -2.164062 -8.746094 -0.605469 -5.714844 C 0.867188 -2.855469 3.03125 -0.867188 6.148438 -0.171875 C 12.296875 1.296875 16.972656 -1.125 19.394531 -6.925781 C 21.558594 -12.296875 22.339844 -17.75 20.867188 -23.464844 C 20.78125 -23.726562 20.867188 -24.070312 20.78125 -24.503906 C 21.128906 -24.589844 21.128906 -24.675781 21.214844 -24.675781 Z M 12.382812 -30.304688 C 16.972656 -22.6875 17.921875 -14.71875 14.027344 -6.582031 C 13.421875 -5.453125 12.816406 -4.414062 11.863281 -3.550781 C 10.738281 -2.511719 9.699219 -2.597656 8.746094 -3.894531 C 8.140625 -4.675781 7.878906 -5.542969 7.53125 -6.492188 C 6.492188 -10.21875 6.492188 -13.941406 7.011719 -17.664062 C 7.53125 -21.128906 8.140625 -24.589844 9.265625 -27.882812 C 9.699219 -29.179688 10.21875 -30.480469 11.082031 -31.519531 C 11.777344 -31.257812 12.121094 -30.738281 12.382812 -30.304688 Z M 12.382812 -30.304688" transform="translate(366.308 97.22)"/></g></g></g><g fill="#1E5128"><g><g><path d="M 20.519531 -20.695312 C 20.609375 -16.796875 21.039062 -12.902344 21.648438 -9.003906 C 22.425781 -3.464844 23.636719 1.90625 25.714844 7.101562 C 26.410156 8.660156 27.101562 10.21875 28.226562 11.515625 C 30.910156 14.632812 36.195312 14.199219 38.273438 10.738281 C 39.398438 8.917969 40.175781 6.925781 40.695312 4.933594 C 42.949219 -3.289062 45.027344 -11.515625 47.105469 -19.742188 C 47.363281 -20.695312 47.535156 -21.472656 46.238281 -21.820312 C 44.59375 -22.167969 43.898438 -21.90625 43.46875 -20.695312 C 43.378906 -20.261719 43.292969 -19.914062 43.121094 -19.480469 C 40.957031 -11.429688 38.703125 -3.464844 36.453125 4.589844 C 36.105469 5.800781 35.675781 7.101562 34.980469 8.226562 C 34.894531 8.484375 34.636719 8.832031 34.289062 8.746094 C 33.769531 8.746094 33.683594 8.3125 33.597656 7.964844 C 32.988281 5.800781 32.730469 3.636719 32.730469 1.386719 C 32.644531 -2.078125 32.730469 -5.628906 32.644531 -9.089844 C 32.210938 -25.976562 33.25 -42.773438 34.375 -59.484375 C 34.460938 -61.21875 34.460938 -62.949219 34.460938 -64.679688 C 34.460938 -65.632812 34.027344 -66.152344 32.988281 -66.152344 C 31.171875 -66.066406 29.351562 -66.066406 27.621094 -66.066406 C 26.496094 -66.066406 25.976562 -65.460938 25.628906 -64.507812 C 25.109375 -62.777344 24.503906 -61.128906 24.070312 -59.3125 C 22.773438 -54.03125 22.078125 -48.574219 21.300781 -43.207031 C 20.953125 -40.871094 20.867188 -40.957031 18.53125 -40.78125 C 11.863281 -40.261719 6.320312 -37.492188 2.597656 -31.691406 C 0.867188 -29.007812 -0.347656 -26.0625 -0.953125 -22.859375 C -1.644531 -19.050781 -1.90625 -15.238281 -0.433594 -11.515625 C 1.039062 -7.53125 4.242188 -6.148438 8.140625 -5.800781 C 11.777344 -5.542969 13.941406 -7.445312 15.5 -10.476562 C 16.972656 -13.421875 18.011719 -16.453125 19.222656 -19.480469 C 19.480469 -20.261719 19.65625 -21.039062 20.175781 -21.648438 C 20.609375 -21.386719 20.519531 -21.039062 20.519531 -20.695312 Z M 7.1875 -11.777344 C 6.234375 -18.53125 7.011719 -25.109375 10.648438 -31.085938 C 12.46875 -34.117188 14.894531 -36.367188 18.441406 -37.320312 C 18.617188 -37.320312 18.875 -37.40625 19.136719 -37.40625 C 19.308594 -37.40625 19.480469 -37.320312 19.65625 -37.320312 C 20 -36.714844 19.570312 -36.28125 19.394531 -35.761719 C 16.453125 -28.488281 13.421875 -21.300781 10.738281 -13.941406 C 10.128906 -12.382812 9.523438 -10.824219 8.226562 -9.609375 C 7.359375 -10.128906 7.273438 -10.996094 7.1875 -11.777344 Z M 7.1875 -11.777344" transform="translate(400.853 97.22)"/></g></g></g><g fill="#1E5128"><g><g><path d="M 4.328125 -4.675781 C 4.414062 -3.117188 5.972656 -1.992188 7.792969 -2.078125 C 9.351562 -2.078125 10.304688 -3.117188 10.21875 -4.761719 C 10.21875 -6.40625 8.917969 -7.621094 7.273438 -7.53125 C 5.542969 -7.53125 4.15625 -6.148438 4.328125 -4.675781 Z M 4.328125 -4.675781" transform="translate(472.973 97.22)"/></g></g></g></svg>